<svg xmlns="http://www.w3.org/2000/svg" width="24" height="24" viewBox="0 0 24 24">
  <g id="account" transform="translate(-72 -277)">
    <circle id="background" cx="12" cy="12" r="12" transform="translate(72 277)" fill="#fff"/>
    <g id="account_circle_black_24dp" transform="translate(73.601 278.601)">
      <path id="Path_1" data-name="Path 1" d="M0,0H20.8V20.8H0Z" fill="none"/>
      <path id="Path_2" data-name="Path 2" d="M10.666,2a8.666,8.666,0,1,0,8.666,8.666A8.669,8.669,0,0,0,10.666,2ZM6.394,16.108c.373-.78,2.643-1.542,4.272-1.542s3.908.763,4.272,1.542a6.868,6.868,0,0,1-8.544,0Zm9.784-1.257c-1.239-1.508-4.246-2.019-5.511-2.019s-4.272.511-5.511,2.019a6.933,6.933,0,1,1,11.023,0ZM10.666,5.466A3.033,3.033,0,1,0,13.7,8.5,3.025,3.025,0,0,0,10.666,5.466Zm0,4.333a1.3,1.3,0,1,1,1.3-1.3A1.3,1.3,0,0,1,10.666,9.8Z" transform="translate(-0.267 -0.267)"/>
    </g>
  </g>
</svg>
